<svg width="41" height="45" viewBox="0 0 41 45" fill="none" xmlns="http://www.w3.org/2000/svg">
<path d="M35.9463 0C38.5437 0 40.6355 2.10009 40.7588 4.5742V44.329L35.8161 40.1302L33.1037 37.663L30.1378 35.0795L31.3721 39.1494H5.44797C2.85749 39.1494 0.758789 37.1865 0.758789 34.5752V4.58251C0.758789 2.1084 2.85888 0.00831169 5.45628 0.00831169H35.9325L35.9463 0ZM24.6466 10.4977H24.5884L24.213 10.8661C28.0447 11.9771 29.8982 13.7087 29.8982 13.7087C27.431 12.4745 25.2007 11.8539 22.9787 11.6017C21.3773 11.3565 19.7676 11.4868 18.4114 11.6017H18.036C17.1702 11.6017 15.3236 11.9771 12.8481 12.9648C11.9893 13.3403 11.492 13.5855 11.492 13.5855C11.492 13.5855 13.3385 11.7306 17.4223 10.7429L17.1702 10.4977C17.1702 10.4977 14.0824 10.3744 10.7494 12.8429C10.7494 12.8429 7.41645 18.6514 7.41645 25.8078C7.41645 25.8078 9.26303 29.0189 14.329 29.1408C14.329 29.1408 15.0715 28.16 15.8154 27.2942C12.9728 26.4284 11.8618 24.6968 11.8618 24.6968C11.8618 24.6968 12.1139 24.8201 12.4824 25.0653H12.5905C12.6487 25.0653 12.6778 25.0944 12.7055 25.1235V25.1373C12.7345 25.1664 12.7636 25.1872 12.8135 25.1872C13.4272 25.4393 14.0326 25.6845 14.5313 25.9297C15.3971 26.2982 16.5011 26.6722 17.8573 26.9188C19.5751 27.1709 21.5436 27.2873 23.7877 26.9188C24.8918 26.6667 26.0028 26.4284 27.1138 25.9297C27.8286 25.5612 28.7152 25.1941 29.689 24.5666C29.689 24.5666 28.5849 26.2982 25.6191 27.164C26.2258 28.0229 27.0833 29.0106 27.0833 29.0106C32.1548 28.8956 34.1247 25.6845 34.2327 25.8216C34.2327 18.6722 30.8776 12.8568 30.8776 12.8568C27.8618 10.6126 25.0331 10.5268 24.5358 10.5268L24.6369 10.4907L24.6466 10.4977ZM24.9569 18.6514C26.2563 18.6514 27.3022 19.7555 27.3022 21.1117C27.3022 22.4831 26.2494 23.5858 24.9569 23.5858C23.6575 23.5858 22.6116 22.4817 22.6116 21.1255C22.6116 19.7541 23.6644 18.6514 24.9569 18.6514ZM16.5662 18.6514C17.8573 18.6514 18.9046 19.7555 18.9046 21.1117C18.9046 22.4831 17.8518 23.5858 16.5593 23.5858C15.2599 23.5858 14.2071 22.4817 14.2071 21.1255C14.2071 19.7541 15.2599 18.6514 16.5593 18.6514H16.5662Z" fill="black"/>
</svg>
