<svg width="290" height="98" viewBox="0 0 290 98" fill="none" xmlns="http://www.w3.org/2000/svg">
<path d="M2.7335 32.1205H17.7173C24.2234 32.1205 28.1642 27.465 28.1642 22.5329C28.1642 20.2281 26.9273 17.4164 25.7817 16.218V16.1258C27.1106 14.8351 28.1642 12.4843 28.1642 10.0413C28.1642 4.97093 24.2234 1.4678 17.7173 1.4678H2.7335V32.1205ZM8.23199 13.7289V6.44597H17.7173C20.8327 6.44597 22.5743 7.78268 22.5743 10.0413C22.5743 12.4382 20.9707 13.7289 18.038 13.7289H8.23199ZM8.23199 27.1423V18.7992H18.038C20.9707 18.7992 22.5743 20.0899 22.5743 22.5329C22.5743 24.8376 20.8327 27.1423 17.7173 27.1423H8.23199ZM36.2286 0.0849609V32.1205H41.3604V0.0849609H36.2286ZM60.3783 32.6736C67.4804 32.6736 72.841 27.972 72.841 21.15C72.841 14.3742 67.4804 9.67255 60.3783 9.67255C53.2761 9.67255 48.0063 14.3742 48.0063 21.15C48.0063 27.972 53.2761 32.6736 60.3783 32.6736ZM60.3783 27.9259C56.1167 27.9259 53.2761 25.2063 53.2761 21.15C53.2761 17.0938 56.1167 14.3281 60.3783 14.3281C64.6392 14.3281 67.5258 17.0938 67.5258 21.15C67.5258 25.2063 64.5938 27.9259 60.3783 27.9259ZM90.3148 32.6736C93.9349 32.6736 97.2796 31.1986 100.029 28.6635L96.4548 25.1603C94.5764 27.0962 92.4686 27.9259 90.3608 27.9259C86.0079 27.9259 83.1666 25.1603 83.1666 21.15C83.1666 17.0938 86.0533 14.3281 90.3148 14.3281C92.606 14.3281 94.7591 15.3882 96.2254 17.0016L99.8915 13.5445C97.2336 11.0093 93.7969 9.67255 90.3148 9.67255C83.2126 9.67255 77.8975 14.4202 77.8975 21.15C77.8975 27.9259 83.1666 32.6736 90.3148 32.6736ZM115.138 23.2243L122.561 32.1205H129.022L118.758 19.9516L129.113 10.1796H121.874L111.748 19.7672V0.0849609H106.616V32.1205H111.748V26.4048L115.138 23.2243ZM143.518 32.6736C147.138 32.6736 150.483 31.1986 153.232 28.6635L149.658 25.1603C147.779 27.0962 145.672 27.9259 143.564 27.9259C139.211 27.9259 136.37 25.1603 136.37 21.15C136.37 17.0938 139.257 14.3281 143.518 14.3281C145.81 14.3281 147.963 15.3882 149.429 17.0016L153.094 13.5445C150.437 11.0093 147 9.67255 143.518 9.67255C136.416 9.67255 131.101 14.4202 131.101 21.15C131.101 27.9259 136.37 32.6736 143.518 32.6736ZM171.595 9.67255C168.983 9.67255 166.646 10.0413 164.951 11.2397V0.0849609H159.819V32.1205H164.951V19.3524C164.951 16.0797 168.021 14.3281 170.999 14.3281C174.252 14.3281 176.268 16.1258 176.268 19.168V32.1205H181.401V18.7992C181.401 13.2679 177.23 9.67255 171.595 9.67255ZM212.675 10.1796H207.544V11.5624C205.803 10.3179 203.374 9.67255 200.67 9.67255C193.889 9.67255 188.482 14.3281 188.482 21.15C188.482 27.972 193.935 32.6736 200.533 32.6736C203.465 32.6736 205.94 32.2588 207.727 30.922V32.1205H212.675V10.1796ZM200.808 27.9259C196.593 27.9259 193.751 25.2063 193.751 21.15C193.751 17.0938 196.593 14.3281 200.808 14.3281C205.024 14.3281 207.864 17.0476 207.864 21.15C207.864 25.2525 205.024 27.9259 200.808 27.9259ZM224.017 8.47413C225.758 8.47413 227.271 7.13736 227.271 5.4319C227.271 3.72637 225.758 2.43574 224.017 2.43574C222.184 2.43574 220.764 3.72637 220.764 5.4319C220.764 7.13736 222.184 8.47413 224.017 8.47413ZM226.537 32.1205V10.1796H221.406V32.1205H226.537ZM247.217 9.67255C244.605 9.67255 242.268 10.0413 240.573 11.2397V10.1796H235.441V32.1205H240.573V19.3524C240.573 16.0797 243.643 14.3281 246.621 14.3281C249.874 14.3281 251.89 16.1258 251.89 19.168V32.1205H257.022V18.7992C257.022 13.2679 252.853 9.67255 247.217 9.67255ZM14.6473 87.7305C22.6657 87.7305 27.7061 83.9512 27.7061 78.4194C27.7061 71.229 19.5957 70.1228 15.1968 69.4311C9.14883 68.6014 7.31578 67.5876 7.31578 65.4213C7.31578 62.7014 9.97366 61.042 15.1054 61.042C18.2668 61.042 21.1994 61.8255 24.4528 63.6234L27.8435 59.7055C24.132 57.631 19.4124 55.9717 15.1968 55.9717C9.01146 55.9717 1.67991 58.1379 1.67991 65.6979C1.67991 70.3069 4.56653 72.7959 14.1892 74.4097C14.3266 74.4559 14.464 74.4559 14.6013 74.5015L15.0594 74.5477C18.4962 75.1008 22.0243 75.7001 22.0243 78.5118C22.0243 81.2312 18.9543 82.6602 14.6927 82.6602C10.7985 82.6602 6.76569 81.6001 3.60433 79.4339L0.396973 83.398C3.2376 85.3801 9.01145 87.7305 14.6473 87.7305ZM46.3386 87.7305C53.4408 87.7305 58.8019 83.0291 58.8019 76.207C58.8019 69.4311 53.4408 64.7297 46.3386 64.7297C39.2364 64.7297 33.9667 69.4311 33.9667 76.207C33.9667 83.0291 39.2364 87.7305 46.3386 87.7305ZM46.3386 82.9829C42.0771 82.9829 39.2364 80.2635 39.2364 76.207C39.2364 72.1511 42.0771 69.3855 46.3386 69.3855C50.5996 69.3855 53.4862 72.1511 53.4862 76.207C53.4862 80.2635 50.5542 82.9829 46.3386 82.9829ZM76.7327 87.7305C80.3527 87.7305 83.6975 86.256 86.4467 83.7208L82.8726 80.2173C80.9942 82.1532 78.8864 82.9829 76.7787 82.9829C72.4257 82.9829 69.5845 80.2173 69.5845 76.207C69.5845 72.1511 72.4717 69.3855 76.7327 69.3855C79.0238 69.3855 81.1776 70.4455 82.6439 72.0587L86.3094 68.6014C83.6515 66.0662 80.2154 64.7297 76.7327 64.7297C69.6305 64.7297 64.3153 69.4773 64.3153 76.207C64.3153 82.9829 69.5845 87.7305 76.7327 87.7305ZM96.5213 63.531C98.263 63.531 99.7747 62.1945 99.7747 60.4889C99.7747 58.7834 98.263 57.493 96.5213 57.493C94.6889 57.493 93.2686 58.7834 93.2686 60.4889C93.2686 62.1945 94.6889 63.531 96.5213 63.531ZM99.0418 87.1774V65.2366H93.91V87.1774H99.0418ZM129.812 74.8242C129.812 69.7076 126.055 64.7297 118.54 64.7297C111.392 64.7297 106.444 69.3855 106.444 76.1152C106.444 83.0753 111.667 87.7305 118.861 87.7305C122.526 87.7305 126.1 86.2098 128.85 83.7208L125.596 80.2173C123.535 82.0615 121.198 83.0753 118.815 83.0753C115.287 83.0753 112.721 81.2774 111.896 78.2815H129.308C129.675 76.8063 129.812 75.4235 129.812 74.8242ZM118.494 69.3393C121.977 69.3393 124.039 71.2752 124.405 73.718H111.942C112.721 70.9062 115.103 69.3393 118.494 69.3393ZM152.274 86.256L150.12 82.2456C148.517 82.9367 147.462 82.9829 146.455 82.9829C144.118 82.9829 142.972 81.9229 142.972 79.7104V69.8H152.457V65.2366H142.972V59.0138H137.84V65.2366H133.213V69.8H137.84V79.7104C137.84 84.9188 140.91 87.7305 146.5 87.7305C148.517 87.7305 150.212 87.2698 151.449 86.6243L152.274 86.256ZM181.885 65.2366H176.157L169.468 80.3097L162.319 65.2366H156.591L166.81 86.3016L161.724 97.7795H166.993L181.885 65.2366ZM205.964 87.1774V56.5248H200.466V87.1774H205.964ZM221.86 87.1774V56.5248H216.361V87.1774H221.86ZM256.176 61.5034V56.5248H228.912V61.5034H239.772V87.1774H245.316V61.5034H256.176ZM279.501 73.718C285.274 73.3035 288.574 69.7538 288.574 65.1448C288.574 60.0744 284.633 56.571 278.127 56.571H263.143V87.2236H268.596L268.641 73.7642H272.994L282.846 87.1774H289.856L279.501 73.718ZM268.641 61.5034H278.127C281.242 61.5034 282.984 62.84 282.984 65.0986C282.984 67.311 281.242 68.7862 278.127 68.7862H268.641V61.5034Z" fill="white"/>
</svg>
